<svg xmlns="http://www.w3.org/2000/svg" width="100" height="100" fill="none"><g fill="#E9E9E9" fill-opacity=".5" clip-path="url(#a)"><path d="M27.273 0h-3.03v3.03h3.03zm9.091 0h-3.03v3.03h3.03zm3.03 0h-3.03v3.03h3.03zm3.03 0h-3.03v3.03h3.03zm6.061 0h-3.03v3.03h3.03zm9.091 0h-3.03v3.03h3.03zm15.151 0h-3.03v3.03h3.03zM30.303 3.03h-3.03v3.03h3.03z"/><path d="M33.333 3.03h-3.03v3.03h3.03zm3.031 0h-3.03v3.03h3.03zm3.03 0h-3.03v3.03h3.03zm3.03 0h-3.03v3.03h3.03zm3.031 0h-3.03v3.03h3.03zm12.121 0h-3.03v3.03h3.03zm3.03 0h-3.03v3.03h3.03zM33.333 6.06h-3.03v3.03h3.03zm6.061 0h-3.03v3.03h3.03zm6.061 0h-3.03v3.03h3.03zm3.03 0h-3.03v3.03h3.03zm3.03 0h-3.03v3.03h3.03zm3.031 0h-3.03v3.03h3.03zm3.03 0h-3.03v3.03h3.03zm3.03 0h-3.03v3.03h3.03zm6.061 0h-3.03v3.03h3.03zm6.06 0h-3.03v3.03h3.03zM27.273 9.09h-3.03v3.031h3.03zm3.03 0h-3.03v3.031h3.03zm6.061 0h-3.03v3.031h3.03zm3.03 0h-3.03v3.031h3.03zm12.121 0h-3.03v3.031h3.03zm3.031 0h-3.03v3.031h3.03zm12.121 0h-3.03v3.031h3.03zm3.03 0h-3.03v3.031h3.03zm-42.424 3.031h-3.03v3.03h3.03zm3.03 0h-3.03v3.03h3.03zm21.212 0h-3.03v3.03h3.03zm3.031 0h-3.03v3.03h3.03zm6.06 0h-3.03v3.03h3.03zm6.061 0h-3.03v3.03h3.03zm3.03 0h-3.03v3.03h3.03zm-42.424 3.031h-3.03v3.03h3.03zm3.03 0h-3.03v3.03h3.03z"/><path d="M33.333 15.152h-3.03v3.03h3.03zm6.061 0h-3.03v3.03h3.03zm9.091 0h-3.03v3.03h3.03zm6.061 0h-3.03v3.03h3.03zm9.09 0h-3.03v3.03h3.03zm3.031 0h-3.03v3.03h3.03zm3.03 0h-3.03v3.03h3.03zm3.03 0h-3.03v3.03h3.03zm3.031 0h-3.03v3.03h3.03zm-48.485 3.03h-3.03v3.03h3.03zm6.06 0h-3.03v3.03h3.03zm6.061 0h-3.03v3.03h3.03zm6.061 0h-3.03v3.03h3.03zm6.06 0h-3.03v3.03h3.03zm6.061 0h-3.03v3.03h3.03zm6.06 0h-3.03v3.03h3.03zm6.061 0h-3.03v3.03h3.03zm6.061 0h-3.03v3.03h3.03zm-48.485 3.03h-3.03v3.03h3.03zm9.091 0h-3.03v3.03h3.03zm9.091 0h-3.03v3.03h3.03zm9.091 0h-3.03v3.03h3.03zm3.03 0h-3.03v3.03h3.03zm3.03 0h-3.03v3.03h3.03zm3.03 0h-3.03v3.03h3.03zm3.031 0h-3.03v3.03h3.03zm9.091 0h-3.03v3.03h3.03zM3.03 24.242H0v3.03h3.03zm12.122 0h-3.03v3.03h3.03zm6.06 0h-3.03v3.03h3.03zm3.03 0h-3.03v3.03h3.03zm3.031 0h-3.03v3.03h3.03zm6.06 0h-3.03v3.03h3.03zm6.061 0h-3.03v3.03h3.03zm9.091 0h-3.03v3.03h3.03zm6.061 0h-3.03v3.03h3.03zm9.09 0h-3.03v3.03h3.03zm3.031 0h-3.03v3.03h3.03zm3.03 0h-3.03v3.03h3.03zm3.03 0h-3.03v3.03h3.03zm6.061 0h-3.03v3.03h3.03zm3.03 0h-3.03v3.03h3.03zm3.031 0h-3.03v3.03h3.03zm3.03 0h-3.03v3.03h3.03z"/><path d="M90.91 24.242h-3.031v3.03h3.03zm9.09 0h-3.03v3.03H100zM6.06 27.273H3.03v3.03h3.03zm12.122 0h-3.03v3.03h3.03zm6.06 0h-3.03v3.03h3.03zm9.091 0h-3.03v3.03h3.03zm3.031 0h-3.03v3.03h3.03zm12.121 0h-3.03v3.03h3.03zm3.03 0h-3.03v3.03h3.03zm3.031 0h-3.03v3.03h3.03zm3.03 0h-3.03v3.03h3.03zm9.091 0h-3.03v3.03h3.03zm3.03 0h-3.03v3.03h3.03zm3.03 0h-3.03v3.03h3.03zm6.061 0h-3.03v3.03h3.03zm12.122 0h-3.031v3.03h3.03zm3.03 0h-3.03v3.03h3.03zm6.06 0h-3.03v3.03H100zm-96.97 3.03H0v3.03h3.03zm6.06 0H6.06v3.03h3.03zm6.062 0h-3.03v3.03h3.03zm3.03 0h-3.03v3.03h3.03zm3.03 0h-3.03v3.03h3.03zm3.03 0h-3.03v3.03h3.03zm3.031 0h-3.03v3.03h3.03zm15.151 0h-3.03v3.03h3.03zm3.031 0h-3.03v3.03h3.03zm3.03 0h-3.03v3.03h3.03zm9.091 0h-3.03v3.03h3.03zm15.151 0h-3.03v3.03h3.03zm6.061 0h-3.03v3.03h3.03zm12.122 0h-3.031v3.03h3.03zm6.06 0h-3.03v3.03h3.03zm-87.88 3.03H6.06v3.03h3.03zm6.062 0h-3.03v3.03h3.03zm9.09 0h-3.03v3.03h3.03zm9.091 0h-3.03v3.03h3.03zm6.061 0h-3.03v3.03h3.03zm3.03 0h-3.03v3.03h3.03zm9.091 0h-3.03v3.03h3.03zm9.091 0h-3.03v3.03h3.03zm3.03 0h-3.03v3.03h3.03zm6.061 0h-3.03v3.03h3.03zm6.061 0h-3.03v3.03h3.03zm3.03 0h-3.03v3.03h3.03zm3.03 0h-3.03v3.03h3.03zM3.03 36.364H0v3.03h3.03zm6.06 0H6.06v3.03h3.03zm3.031 0h-3.03v3.03h3.03zm9.091 0h-3.03v3.03h3.03zm6.061 0h-3.03v3.03h3.03zm6.06 0h-3.03v3.03h3.03zm6.061 0h-3.03v3.03h3.03zm3.03 0h-3.03v3.03h3.03zm9.091 0h-3.03v3.03h3.03zm18.182 0h-3.03v3.03h3.03zm3.03 0h-3.03v3.03h3.03zm3.031 0h-3.03v3.03h3.03zm6.06 0h-3.03v3.03h3.03zm3.031 0h-3.03v3.03h3.03zm6.061 0h-3.031v3.03h3.03zm9.09 0h-3.03v3.03H100zm-96.97 3.03H0v3.03h3.03zm6.06 0H6.06v3.03h3.03zm3.031 0h-3.03v3.03h3.03zm3.031 0h-3.03v3.03h3.03zm3.03 0h-3.03v3.03h3.03zm6.06 0h-3.03v3.03h3.03zm9.091 0h-3.03v3.03h3.03zm3.031 0h-3.03v3.03h3.03zm9.091 0h-3.03v3.03h3.03zm9.091 0h-3.03v3.03h3.03zm3.03 0h-3.03v3.03h3.03zm3.03 0h-3.03v3.03h3.03zm3.03 0h-3.03v3.03h3.03zm12.122 0h-3.03v3.03h3.03zm3.03 0h-3.03v3.03h3.03zm6.061 0h-3.03v3.03h3.03zm9.091 0h-3.03v3.03h3.03zm-84.85 3.03H6.06v3.03h3.03zm6.062 0h-3.03v3.03h3.03zm3.03 0h-3.03v3.03h3.03zm3.03 0h-3.03v3.03h3.03zm12.121 0h-3.03v3.03h3.03zm3.031 0h-3.03v3.03h3.03zm3.03 0h-3.03v3.03h3.03zm6.061 0h-3.03v3.03h3.03zm3.03 0h-3.03v3.03h3.03zm6.061 0h-3.03v3.03h3.03zm3.03 0h-3.03v3.03h3.03zm6.06 0h-3.03v3.03h3.03zm3.031 0h-3.03v3.03h3.03zm6.06 0h-3.03v3.03h3.03zm3.031 0h-3.03v3.03h3.03zm3.03 0h-3.03v3.03h3.03zm3.03 0h-3.03v3.03h3.03zm6.061 0h-3.03v3.03h3.03zm9.091 0h-3.03v3.03h3.03zM3.03 45.455H0v3.03h3.03zm3.03 0H3.03v3.03h3.03zm3.03 0H6.06v3.03h3.03zm3.031 0h-3.03v3.03h3.03zm3.031 0h-3.03v3.03h3.03zm9.09 0h-3.03v3.03h3.03zm9.091 0h-3.03v3.03h3.03zm3.031 0h-3.03v3.03h3.03zm6.06 0h-3.03v3.03h3.03zm3.031 0h-3.03v3.03h3.03zm3.03 0h-3.03v3.03h3.03zm3.03 0h-3.03v3.03h3.03zm3.031 0h-3.03v3.03h3.03zm3.03 0h-3.03v3.03h3.03zm9.091 0h-3.03v3.03h3.03zm6.06 0h-3.03v3.03h3.03zm6.061 0h-3.03v3.03h3.03zm3.03 0h-3.03v3.03h3.03zm3.031 0h-3.03v3.03h3.03zM3.03 48.485H0v3.03h3.03zm3.03 0H3.03v3.03h3.03zm6.061 0h-3.03v3.03h3.03zm3.031 0h-3.03v3.03h3.03zm3.03 0h-3.03v3.03h3.03zm3.03 0h-3.03v3.03h3.03zm6.061 0h-3.03v3.03h3.03zm3.03 0h-3.03v3.03h3.03zm9.091 0h-3.03v3.03h3.03zm15.152 0h-3.03v3.03h3.03zm3.03 0h-3.03v3.03h3.03zm3.03 0h-3.03v3.03h3.03zm3.03 0h-3.03v3.03h3.03zm3.031 0h-3.03v3.03h3.03zm3.03 0h-3.03v3.03h3.03zm6.061 0h-3.03v3.03h3.03zm6.06 0h-3.03v3.03h3.03zm6.061 0h-3.03v3.03h3.03z"/><path d="M90.91 48.485h-3.031v3.03h3.03zm6.06 0h-3.03v3.03h3.03zm-93.94 3.03H0v3.03h3.03zm3.03 0H3.03v3.03h3.03zm9.092 0h-3.03v3.03h3.03zm3.03 0h-3.03v3.03h3.03zm6.06 0h-3.03v3.03h3.03zm3.031 0h-3.03v3.03h3.03zm3.03 0h-3.03v3.03h3.03z"/><path d="M33.333 51.515h-3.03v3.03h3.03zm15.152 0h-3.03v3.03h3.03zm3.03 0h-3.03v3.03h3.03zm6.061 0h-3.03v3.03h3.03zm6.06 0h-3.03v3.03h3.03zm6.061 0h-3.03v3.03h3.03zm3.03 0h-3.03v3.03h3.03zm3.031 0h-3.03v3.03h3.03zm15.152 0h-3.031v3.03h3.03zm3.03 0h-3.03v3.03h3.03zm3.03 0h-3.03v3.03h3.03zM3.03 54.546H0v3.03h3.03zm6.06 0H6.06v3.03h3.03zm3.031 0h-3.03v3.03h3.03zm3.031 0h-3.03v3.03h3.03zm6.06 0h-3.03v3.03h3.03zm3.03 0h-3.03v3.03h3.03zm9.091 0h-3.03v3.03h3.03zm6.061 0h-3.03v3.03h3.03zm3.03 0h-3.03v3.03h3.03zm6.061 0h-3.03v3.03h3.03zm3.03 0h-3.03v3.03h3.03zm3.031 0h-3.03v3.03h3.03zm9.09 0h-3.03v3.03h3.03zm3.031 0h-3.03v3.03h3.03zm3.03 0h-3.03v3.03h3.03zm3.03 0h-3.03v3.03h3.03zm3.031 0h-3.03v3.03h3.03zm3.03 0h-3.03v3.03h3.03zm6.061 0h-3.03v3.03h3.03zm6.061 0h-3.031v3.03h3.03zm6.06 0h-3.03v3.03h3.03zm-90.91 3.03H3.03v3.03h3.03zm3.03 0H6.06v3.03h3.03zm6.062 0h-3.03v3.03h3.03zm9.09 0h-3.03v3.03h3.03zm9.091 0h-3.03v3.03h3.03zm6.061 0h-3.03v3.03h3.03zm3.03 0h-3.03v3.03h3.03zm6.061 0h-3.03v3.03h3.03zm6.061 0h-3.03v3.03h3.03zm3.03 0h-3.03v3.03h3.03zm6.06 0h-3.03v3.03h3.03zm3.031 0h-3.03v3.03h3.03zm9.091 0h-3.03v3.03h3.03zm3.03 0h-3.03v3.03h3.03zm3.03 0h-3.03v3.03h3.03zm3.031 0h-3.03v3.03h3.03zm12.121 0h-3.03v3.03h3.03zm-93.94 3.03H0v3.03h3.03zm6.06 0H6.06v3.03h3.03zm9.092 0h-3.03v3.03h3.03zm3.03 0h-3.03v3.03h3.03zm3.03 0h-3.03v3.03h3.03zm6.061 0h-3.03v3.03h3.03zm6.061 0h-3.03v3.03h3.03zm6.06 0h-3.03v3.03h3.03zm3.031 0h-3.03v3.03h3.03zm12.121 0h-3.03v3.03h3.03zm3.03 0h-3.03v3.03h3.03zm3.03 0h-3.03v3.03h3.03zm18.182 0h-3.03v3.03h3.03zm3.031 0h-3.03v3.03h3.03zm3.03 0h-3.03v3.03h3.03z"/><path d="M90.91 60.606h-3.031v3.03h3.03zm-87.88 3.03H0v3.03h3.03zm9.091 0h-3.03v3.03h3.03zm6.061 0h-3.03v3.03h3.03zm21.212 0h-3.03v3.03h3.03zm12.121 0h-3.03v3.03h3.03zm3.031 0h-3.03v3.03h3.03zm6.06 0h-3.03v3.03h3.03zm9.091 0h-3.03v3.03h3.03zm12.121 0h-3.03v3.03h3.03zm9.092 0h-3.031v3.03h3.03zm3.03 0h-3.03v3.03h3.03zm3.03 0h-3.03v3.03h3.03zm-81.818 3.031h-3.03v3.03h3.03zm3.03 0h-3.03v3.03h3.03zm3.03 0h-3.03v3.03h3.03zm3.03 0h-3.03v3.03h3.03zm12.122 0h-3.03v3.03h3.03zm3.03 0h-3.03v3.03h3.03zm6.061 0h-3.03v3.03h3.03zm6.06 0h-3.03v3.03h3.03zm6.061 0h-3.03v3.03h3.03zm3.03 0h-3.03v3.03h3.03zm6.061 0h-3.03v3.03h3.03zm6.06 0h-3.03v3.03h3.03zm3.031 0h-3.03v3.03h3.03zm3.03 0h-3.03v3.03h3.03zm15.152 0h-3.03v3.03h3.03zm3.03 0h-3.03v3.03h3.03zm-84.849 3.03h-3.03v3.03h3.03zm3.031 0h-3.03v3.03h3.03zm3.03 0h-3.03v3.03h3.03zm6.06 0h-3.03v3.03h3.03zm3.031 0h-3.03v3.03h3.03zm6.06 0h-3.03v3.03h3.03zm9.091 0h-3.03v3.03h3.03zm12.122 0h-3.03v3.03h3.03zm3.03 0h-3.03v3.03h3.03zm3.03 0h-3.03v3.03h3.03zm3.03 0h-3.03v3.03h3.03zm3.031 0h-3.03v3.03h3.03zm3.03 0h-3.03v3.03h3.03zm9.091 0h-3.03v3.03h3.03zm3.03 0h-3.03v3.03h3.03zm6.061 0h-3.03v3.03h3.03z"/><path d="M90.91 69.697h-3.031v3.03h3.03zm6.06 0h-3.03v3.03h3.03zm3.03 0h-3.03v3.03H100zm-96.97 3.03H0v3.03h3.03zm3.03 0H3.03v3.03h3.03zm3.03 0H6.06v3.03h3.03zm6.062 0h-3.03v3.03h3.03zm6.06 0h-3.03v3.03h3.03zm3.03 0h-3.03v3.03h3.03zm9.091 0h-3.03v3.03h3.03zm3.031 0h-3.03v3.03h3.03zm6.06 0h-3.03v3.03h3.03zm3.031 0h-3.03v3.03h3.03zm3.03 0h-3.03v3.03h3.03zm3.03 0h-3.03v3.03h3.03zm3.031 0h-3.03v3.03h3.03zm9.09 0h-3.03v3.03h3.03zm3.031 0h-3.03v3.03h3.03zm3.03 0h-3.03v3.03h3.03zm6.061 0h-3.03v3.03h3.03zm3.03 0h-3.03v3.03h3.03zm3.03 0h-3.03v3.03h3.03zm3.031 0h-3.03v3.03h3.03zm3.03 0h-3.03v3.03h3.03z"/><path d="M90.91 72.727h-3.031v3.03h3.03zm6.06 0h-3.03v3.03h3.03zm-69.697 3.031h-3.03v3.03h3.03zm6.06 0h-3.03v3.03h3.03zm3.031 0h-3.03v3.03h3.03zm6.06 0h-3.03v3.03h3.03zm3.031 0h-3.03v3.03h3.03zm3.03 0h-3.03v3.03h3.03zm3.03 0h-3.03v3.03h3.03zm3.031 0h-3.03v3.03h3.03zm12.121 0h-3.03v3.03h3.03zm3.03 0h-3.03v3.03h3.03zm3.03 0h-3.03v3.03h3.03zm3.031 0h-3.03v3.03h3.03zm12.121 0h-3.03v3.03h3.03zm6.061 0h-3.03v3.03h3.03zm-66.667 3.03h-3.03v3.03h3.03zm3.03 0h-3.03v3.03h3.03z"/><path d="M33.333 78.788h-3.03v3.03h3.03zm12.122 0h-3.03v3.03h3.03zm3.03 0h-3.03v3.03h3.03zm9.091 0h-3.03v3.03h3.03zm18.182 0h-3.03v3.03h3.03zm6.06 0h-3.03v3.03h3.03zm6.061 0h-3.03v3.03h3.03zm3.031 0h-3.031v3.03h3.03zm-54.546 3.03h-3.03v3.03h3.03zm9.091 0h-3.03v3.03h3.03zm3.03 0h-3.03v3.03h3.03zm3.03 0h-3.03v3.03h3.03zm9.091 0h-3.03v3.03h3.03zm9.091 0h-3.03v3.03h3.03zm6.061 0h-3.03v3.03h3.03zm12.121 0h-3.03v3.03h3.03zm12.121 0h-3.03v3.03H100zm-72.727 3.031h-3.03v3.03h3.03zm9.091 0h-3.03v3.03h3.03zm3.03 0h-3.03v3.03h3.03zm3.03 0h-3.03v3.03h3.03zm3.031 0h-3.03v3.03h3.03zm6.06 0h-3.03v3.03h3.03zm9.091 0h-3.03v3.03h3.03zm9.091 0h-3.03v3.03h3.03zm6.061 0h-3.03v3.03h3.03zm3.03 0h-3.03v3.03h3.03zm3.03 0h-3.03v3.03h3.03zm3.031 0h-3.03v3.03h3.03zm3.03 0h-3.03v3.03h3.03z"/><path d="M90.91 84.849h-3.031v3.03h3.03zm9.09 0h-3.03v3.03H100zm-69.697 3.03h-3.03v3.03h3.03zm3.03 0h-3.03v3.03h3.03zm6.061 0h-3.03v3.03h3.03zm3.03 0h-3.03v3.03h3.03zm15.152 0h-3.03v3.03h3.03zm3.03 0h-3.03v3.03h3.03zm3.03 0h-3.03v3.03h3.03zm9.091 0h-3.03v3.03h3.03zm9.091 0h-3.03v3.03h3.03zm3.031 0h-3.03v3.03h3.03zm3.03 0h-3.03v3.03h3.03z"/><path d="M90.91 87.879h-3.031v3.03h3.03zm3.03 0h-3.03v3.03h3.03zm3.03 0h-3.03v3.03h3.03zM30.303 90.91h-3.03v3.03h3.03zm9.091 0h-3.03v3.03h3.03zm6.061 0h-3.03v3.03h3.03zm3.03 0h-3.03v3.03h3.03zm9.091 0h-3.03v3.03h3.03zm6.06 0h-3.03v3.03h3.03zm3.031 0h-3.03v3.03h3.03zm12.121 0h-3.03v3.03h3.03zm3.03 0h-3.03v3.03h3.03zm3.031 0h-3.03v3.03h3.03zm3.03 0h-3.03v3.03h3.03z"/><path d="M90.91 90.91h-3.031v3.03h3.03zm-54.546 3.03h-3.03v3.03h3.03zm3.03 0h-3.03v3.03h3.03zm3.03 0h-3.03v3.03h3.03zm6.061 0h-3.03v3.03h3.03zm3.03 0h-3.03v3.03h3.03zm3.031 0h-3.03v3.03h3.03zm3.03 0h-3.03v3.03h3.03zm9.091 0h-3.03v3.03h3.03zm6.06 0h-3.03v3.03h3.03zm3.031 0h-3.03v3.03h3.03zm6.06 0h-3.03v3.03h3.03zm-54.545 3.03h-3.03V100h3.03zm6.06 0h-3.03V100h3.03zm21.213 0h-3.03V100h3.03zm6.06 0h-3.03V100h3.03zm3.03 0h-3.03V100h3.03zm3.031 0h-3.03V100h3.03zm3.03 0h-3.03V100h3.03zm3.03 0h-3.03V100h3.03zm3.031 0h-3.03V100h3.03zm3.03 0h-3.03V100h3.03zm3.03 0h-3.03V100h3.03zm9.092 0h-3.031V100h3.03zm9.09 0h-3.03V100H100zM18.03 0H0v21.212h21.212V0zm0 18.03H3.182V3.182H18.03zM96.818 0h-18.03v21.212H100V0zm0 18.03H81.97V3.182h14.848zM18.03 78.788H0V100h21.212V78.788zm0 18.03H3.182V81.97H18.03z"/><path d="M15.152 6.06H6.06v9.092h9.09zm78.788 0h-9.091v9.092h9.09zM15.152 84.849H6.06v9.09h9.09z"/></g><defs><clipPath id="a"><path fill="#fff" d="M0 0h100v100H0z"/></clipPath></defs></svg>